<svg width="424" height="425" viewBox="0 0 424 425" fill="none" xmlns="http://www.w3.org/2000/svg">
<path d="M419.67 168.026L167.608 419.574C174.538 420.87 181.467 422.167 188.397 423.031L423.134 188.772C422.268 181.857 420.969 174.942 419.67 168.026Z" fill="#E3217D"/>
<path d="M405.377 124.372L124.299 404.878C129.929 407.471 135.559 409.632 141.622 411.793L412.74 141.229C410.141 135.61 407.976 129.991 405.377 124.372Z" fill="#E3217D"/>
<path d="M362.501 63.4305C360.768 61.7016 358.603 59.9727 356.437 57.3794L56.7356 356.47C58.9011 359.063 61.0665 360.792 62.7989 362.521C64.5313 364.25 66.6968 365.979 68.8623 368.572L368.564 69.4815C365.965 66.8883 364.233 65.1593 362.501 63.4305Z" fill="#E3217D"/>
<path d="M362.5 362.522C381.99 343.072 397.148 321.029 407.542 295.961L295.804 407.471C320.923 397.098 343.011 381.971 362.5 362.522Z" fill="#E3217D"/>
<path d="M247.73 421.302L421.401 247.985C422.701 238.909 424 230.264 424 221.188L220.445 424.328C229.974 423.895 239.069 423.031 247.73 421.302Z" fill="#E3217D"/>
<path d="M284.11 13.7261L12.993 284.291C15.1585 289.91 17.3239 295.96 19.9225 301.579L301.001 21.0737C295.371 18.0482 289.741 15.8871 284.11 13.7261Z" fill="#E3217D"/>
<path d="M176.703 3.78534L3.03166 177.102C1.29928 187.043 0.433095 196.552 0 206.061L206.153 0.32756C196.192 1.19198 186.231 2.05649 176.703 3.78534Z" fill="#E3217D"/>
<path d="M62.7985 63.4305C43.3093 82.8801 28.1509 104.923 17.7567 129.991L129.495 18.4805C104.376 28.8536 81.8547 43.981 62.7985 63.4305Z" fill="#E3217D"/>
<path d="M323.089 32.3114L31.6157 323.19C34.6473 328.377 38.1121 333.131 41.1438 337.453L337.814 42.2522C333.05 38.7945 328.286 35.3369 323.089 32.3114Z" fill="#E3217D"/>
<path d="M236.903 2.92072L2.16534 237.18C3.03153 244.095 4.33082 251.01 5.6301 257.926L257.691 6.37837C250.762 4.64952 243.832 3.35294 236.903 2.92072Z" fill="#E3217D"/>
<path d="M383.722 88.0668L87.4855 383.7C92.2495 387.157 97.0136 390.183 101.778 393.208L393.251 102.33C390.219 97.5754 387.187 92.3889 383.722 88.0668Z" fill="#E3217D"/>
</svg>
