<svg width="264" height="208" viewBox="0 0 264 208" fill="none" xmlns="http://www.w3.org/2000/svg">
<path d="M253.63 105.139C236.783 107.912 226.892 101.63 219.561 97.038C213.042 92.9881 209.893 91.1696 203.211 92.2449C196.53 93.3202 193.951 96.0603 188.81 102.007C183.064 108.582 175.233 117.675 158.386 120.447C141.538 123.219 131.648 116.938 124.317 112.346C117.797 108.296 114.648 106.477 107.967 107.552C101.285 108.628 98.7068 111.368 93.5656 117.315C87.8195 123.889 79.9883 132.982 63.1411 135.755C46.2939 138.527 36.403 132.246 29.0723 127.653C22.5526 123.603 19.404 121.785 12.7224 122.86L9.94972 102.4C26.7969 99.6273 36.6877 105.909 44.0184 110.501C50.5382 114.551 53.6868 116.37 60.3684 115.294C67.05 114.219 69.6285 111.479 74.7697 105.532C80.5158 98.9572 88.347 89.8646 105.194 87.0921C122.041 84.3196 131.932 90.601 139.263 95.1935C145.783 99.2434 148.931 101.062 155.613 99.9866C162.294 98.9113 164.873 96.1712 170.014 90.2242C175.76 83.6496 183.592 74.557 200.439 71.7845C217.286 69.012 227.177 75.2934 234.507 79.8859C241.027 83.9358 244.176 85.7543 250.857 84.679L253.63 105.139Z" stroke="white" stroke-width="5" stroke-miterlimit="10"/>
</svg>
